{
  "accessors": [
    {
      "bufferView": 0,
      "byteOffset": 0,
      "componentType": 5123,
      "count": 20247,
      "max": [
        4160.0
      ],
      "min": [
        0.0
      ],
      "name": "buffer-0-group-0-mesh-0-indices",
      "type": "SCALAR"
    },
    {
      "bufferView": 1,
      "byteOffset": 0,
      "componentType": 5126,
      "count": 4161,
      "max": [
        5.196700096130371,
        29.99839973449707,
        5.984300136566162
      ],
      "min": [
        -5.188499927520752,
        0.0019000000320374966,
        -3.081700086593628
      ],
      "name": "buffer-0-group-0-mesh-0-position",
      "type": "VEC3"
    },
    {
      "bufferView": 1,
      "byteOffset": 49932,
      "componentType": 5126,
      "count": 4161,
      "max": [
        0.9998419284820557,
        0.9955240488052368,
        0.9999826550483704
      ],
      "min": [
        -0.9999802708625793,
        -0.999843955039978,
        -0.9999904632568359
      ],
      "name": "buffer-0-group-0-mesh-0-normal",
      "type": "VEC3"
    }
  ],
  "asset": {
    "generator": "Obj2GltfConverter",
    "version": "2.0"
  },
  "bufferViews": [
    {
      "buffer": 0,
      "byteLength": 40494,
      "byteOffset": 0,
      "name": "buffer-0-bufferview-ushort",
      "target": 34963
    },
    {
      "buffer": 0,
      "byteLength": 99864,
      "byteOffset": 40500,
      "byteStride": 12,
      "name": "buffer-0-bufferview-vec3",
      "target": 34962
    }
  ],
  "buffers": [
    {
      "byteLength": 140364,
      "name": "buffer-0",
      "uri": "JUICY_SALIF.bin"
    }
  ],
  "materials": [
    {
      "alphaMode": "OPAQUE",
      "doubleSided": true,
      "name": "Aluminium",
      "pbrMetallicRoughness": {
        "baseColorFactor": [
          0.7961,
          0.7961,
          0.7961,
          1.0
        ],
        "metallicFactor": 0.0,
        "roughnessFactor": 0.8849289539824429
      }
    }
  ],
  "meshes": [
    {
      "name": "buffer-0-mesh-0",
      "primitives": [
        {
          "attributes": {
            "POSITION": 1,
            "NORMAL": 2
          },
          "indices": 0,
          "material": 0,
          "mode": 4
        }
      ]
    }
  ],
  "nodes": [
    {
      "mesh": 0,
      "name": "node-0"
    }
  ],
  "scenes": [
    {
      "name": "scene-0",
      "nodes": [
        0
      ]
    }
  ]
}